<svg width="398" height="852" viewBox="0 0 398 852" fill="none" xmlns="http://www.w3.org/2000/svg">
<g clip-path="url(#clip0_172_4)" filter="url(#filter0_d_172_4)">
<rect width="390" height="844" transform="translate(4)" fill="white"/>
<rect x="4" width="390" height="844" fill="#5458F0"/>
<path d="M125.5 213.5C125.5 276.987 71.1287 328.5 4 328.5C-63.1287 328.5 -117.5 276.987 -117.5 213.5C-117.5 150.013 -63.1287 98.5 4 98.5C71.1287 98.5 125.5 150.013 125.5 213.5Z" stroke="#23CF49"/>
<path d="M110.5 196.5C110.5 259.987 56.1287 311.5 -11 311.5C-78.1287 311.5 -132.5 259.987 -132.5 196.5C-132.5 133.013 -78.1287 81.5 -11 81.5C56.1287 81.5 110.5 133.013 110.5 196.5Z" stroke="#ADCF23"/>
<path d="M295.5 807C295.5 909.423 207.774 992.5 99.5 992.5C-8.77404 992.5 -96.5 909.423 -96.5 807C-96.5 704.577 -8.77404 621.5 99.5 621.5C207.774 621.5 295.5 704.577 295.5 807Z" stroke="#7C1C8B"/>
<path d="M281.069 628.209L348.21 622.599L348.975 631.754L290.989 636.6L295.835 694.585L286.679 695.35L281.069 628.209ZM314.137 656.178L381.278 650.567L382.044 659.723L324.058 664.568L328.903 722.554L319.748 723.319L314.137 656.178Z" fill="#7C1C8B"/>
</g>
<defs>
<filter id="filter0_d_172_4" x="0" y="0" width="398" height="852" filterUnits="userSpaceOnUse" color-interpolation-filters="sRGB">
<feFlood flood-opacity="0" result="BackgroundImageFix"/>
<feColorMatrix in="SourceAlpha" type="matrix" values="0 0 0 0 0 0 0 0 0 0 0 0 0 0 0 0 0 0 127 0" result="hardAlpha"/>
<feOffset dy="4"/>
<feGaussianBlur stdDeviation="2"/>
<feComposite in2="hardAlpha" operator="out"/>
<feColorMatrix type="matrix" values="0 0 0 0 0 0 0 0 0 0 0 0 0 0 0 0 0 0 0.25 0"/>
<feBlend mode="normal" in2="BackgroundImageFix" result="effect1_dropShadow_172_4"/>
<feBlend mode="normal" in="SourceGraphic" in2="effect1_dropShadow_172_4" result="shape"/>
</filter>
<clipPath id="clip0_172_4">
<rect width="390" height="844" fill="white" transform="translate(4)"/>
</clipPath>
</defs>
</svg>
